<?xml version="1.0" encoding="UTF-8" standalone="no"?>
<!-- Created with Inkscape (http://www.inkscape.org/) -->

<svg
   xmlns:dc="http://purl.org/dc/elements/1.1/"
   xmlns:cc="http://creativecommons.org/ns#"
   xmlns:rdf="http://www.w3.org/1999/02/22-rdf-syntax-ns#"
   xmlns:svg="http://www.w3.org/2000/svg"
   xmlns="http://www.w3.org/2000/svg"
   xmlns:sodipodi="http://sodipodi.sourceforge.net/DTD/sodipodi-0.dtd"
   xmlns:inkscape="http://www.inkscape.org/namespaces/inkscape"
   width="920"
   height="1000"
   id="svg3182"
   sodipodi:version="0.32"
   inkscape:version="0.47 r22583"
   version="1.0"
   sodipodi:docname="bird01.svg"
   inkscape:output_extension="org.inkscape.output.svg.inkscape"
   inkscape:export-filename="bird01.png"
   inkscape:export-xdpi="90"
   inkscape:export-ydpi="90">
  <defs
     id="defs3184">
    <inkscape:perspective
       sodipodi:type="inkscape:persp3d"
       inkscape:vp_x="0 : 372.04724 : 1"
       inkscape:vp_y="0 : 1000 : 0"
       inkscape:vp_z="1052.3622 : 372.04724 : 1"
       inkscape:persp3d-origin="526.18109 : 248.03149 : 1"
       id="perspective3191" />
    <clipPath
       id="clipPath3228"
       clipPathUnits="userSpaceOnUse">
      <path
         id="path3230"
         clip-rule="evenodd"
         d="m 0,-0.3 842,0 L 842,595 0,595 0,-0.3 z" />
    </clipPath>
    <inkscape:perspective
       id="perspective3220"
       inkscape:persp3d-origin="372.04724 : 350.78739 : 1"
       inkscape:vp_z="744.09448 : 526.18109 : 1"
       inkscape:vp_y="0 : 1000 : 0"
       inkscape:vp_x="0 : 526.18109 : 1"
       sodipodi:type="inkscape:persp3d" />
  </defs>
  <sodipodi:namedview
     inkscape:document-units="mm"
     pagecolor="#ffffff"
     bordercolor="#666666"
     borderopacity="1.0"
     inkscape:pageopacity="1"
     inkscape:pageshadow="2"
     inkscape:zoom="0.60916667"
     inkscape:cx="282.48974"
     inkscape:cy="600"
     inkscape:current-layer="layer1"
     id="namedview3186"
     showgrid="false"
     inkscape:window-width="1680"
     inkscape:window-height="988"
     inkscape:window-x="-3"
     inkscape:window-y="-3"
     inkscape:window-maximized="1" />
  <metadata
     id="metadata3188">
    <rdf:RDF>
      <cc:Work
         rdf:about="">
        <dc:format>image/svg+xml</dc:format>
        <dc:type
           rdf:resource="http://purl.org/dc/dcmitype/StillImage" />
        <dc:title></dc:title>
      </cc:Work>
    </rdf:RDF>
  </metadata>
  <g
     inkscape:label="Layer 1"
     inkscape:groupmode="layer"
     id="layer1"
     transform="translate(0,-52.3622)">
    <g
       transform="matrix(2.2257821,0,0,-2.2257821,-254.83126,1173.4907)"
       inkscape:label="Oiseau test 02"
       id="g3222">
      <g
         id="g3224">
        <g
           clip-path="url(#clipPath3228)"
           id="g3226">
          <g
             id="g3232">
            <path
               id="path3234"
               style="fill:#000000;fill-opacity:1;stroke:#000000;stroke-width:2.27789116;stroke-linecap:butt;stroke-linejoin:round;stroke-miterlimit:10;stroke-opacity:1;stroke-dasharray:none"
               d="m 513.34733,330.60041 c 27.4,-13.2 -33.2,31.2 -31.3,31.2 2,0 -21.7,15.1 -25.5,34 l 46.4,24.7 c 0,0 -123.9,-36 -121.1,-36 2.8,0 -52.9,-1.9 -52.9,-1.9 0,0 -39.2,20.9 -37.9,28.4 1.9,10.4 62.4,89.5 48.3,87 -91.8,-16.1 -166.5,-99.6 -168.4,-113.5 -1.9,-14.2 16.1,-22.7 16.1,-22.7 0,0 -57.6,-17 -55.8,-43.5 l -9.4,-11.3 c 0,0 13.2,1.8 13.2,0.9 0,-0.9 52,-18 52,-18 0,0 2.3,-37.4 10.4,-49.1 77.6,-111.6 135.3,-182.599998 171.2,-180.699998 l -53,176.899998 33.1,62.4 -11.3,11.4 c 0,0 39.7,24.5 56.7,20.8 0,0 116.6,0.2 119.2,-1 z" />
          </g>
        </g>
      </g>
    </g>
  </g>
</svg>
