<?xml version="1.0" encoding="UTF-8" standalone="no"?>
<!DOCTYPE svg PUBLIC "-//W3C//DTD SVG 1.1//EN"
 "http://www.w3.org/Graphics/SVG/1.1/DTD/svg11.dtd">
<!-- Generated by graphviz version 2.36.0 (20140111.2315)
 -->
<!-- Title: g Pages: 1 -->
<svg width="416pt" height="660pt"
 viewBox="0.00 0.00 416.00 660.00" xmlns="http://www.w3.org/2000/svg" xmlns:xlink="http://www.w3.org/1999/xlink">
<g id="graph0" class="graph" transform="scale(1 1) rotate(0) translate(4 656)">
<title>g</title>
<polygon fill="white" stroke="none" points="-4,4 -4,-656 412,-656 412,4 -4,4"/>
<!-- following -->
<g id="node1" class="node"><title>following</title>
<polygon fill="#b2dfee" stroke="black" points="0,-0 0,-92 408,-92 408,-0 0,-0"/>
<text text-anchor="middle" x="204" y="-76.8" font-family="Times,serif" font-size="14.00">following</text>
<polyline fill="none" stroke="black" points="0,-69 408,-69 "/>
<text text-anchor="middle" x="204" y="-53.8" font-family="Times,serif" font-size="14.00">follower integer NOT NULL</text>
<polyline fill="none" stroke="black" points="0,-46 408,-46 "/>
<text text-anchor="middle" x="204" y="-30.8" font-family="Times,serif" font-size="14.00">followee integer NOT NULL</text>
<polyline fill="none" stroke="black" points="0,-23 408,-23 "/>
<text text-anchor="middle" x="204" y="-7.8" font-family="Times,serif" font-size="14.00">created timestamp without time zone DEFAULT now ( ) NOT NULL</text>
</g>
<!-- tweets -->
<g id="node2" class="node"><title>tweets</title>
<polygon fill="#b2dfee" stroke="black" points="0,-111.5 0,-226.5 408,-226.5 408,-111.5 0,-111.5"/>
<text text-anchor="middle" x="204" y="-211.3" font-family="Times,serif" font-size="14.00">tweets</text>
<polyline fill="none" stroke="black" points="0,-203.5 408,-203.5 "/>
<text text-anchor="middle" x="204" y="-188.3" font-family="Times,serif" font-size="14.00">id integer NOT NULL</text>
<polyline fill="none" stroke="black" points="0,-180.5 408,-180.5 "/>
<text text-anchor="middle" x="204" y="-165.3" font-family="Times,serif" font-size="14.00">user_id integer NOT NULL</text>
<polyline fill="none" stroke="black" points="0,-157.5 408,-157.5 "/>
<text text-anchor="middle" x="204" y="-142.3" font-family="Times,serif" font-size="14.00">text text NOT NULL</text>
<polyline fill="none" stroke="black" points="0,-134.5 408,-134.5 "/>
<text text-anchor="middle" x="204" y="-119.3" font-family="Times,serif" font-size="14.00">created timestamp without time zone DEFAULT now ( ) NOT NULL</text>
</g>
<!-- users -->
<g id="node3" class="node"><title>users</title>
<polygon fill="#b2dfee" stroke="black" points="0,-246 0,-384 408,-384 408,-246 0,-246"/>
<text text-anchor="middle" x="204" y="-368.8" font-family="Times,serif" font-size="14.00">users</text>
<polyline fill="none" stroke="black" points="0,-361 408,-361 "/>
<text text-anchor="middle" x="204" y="-345.8" font-family="Times,serif" font-size="14.00">id integer NOT NULL</text>
<polyline fill="none" stroke="black" points="0,-338 408,-338 "/>
<text text-anchor="middle" x="204" y="-322.8" font-family="Times,serif" font-size="14.00">username text NOT NULL</text>
<polyline fill="none" stroke="black" points="0,-315 408,-315 "/>
<text text-anchor="middle" x="204" y="-299.8" font-family="Times,serif" font-size="14.00">password text NOT NULL</text>
<polyline fill="none" stroke="black" points="0,-292 408,-292 "/>
<text text-anchor="middle" x="204" y="-276.8" font-family="Times,serif" font-size="14.00">email text NOT NULL</text>
<polyline fill="none" stroke="black" points="0,-269 408,-269 "/>
<text text-anchor="middle" x="204" y="-253.8" font-family="Times,serif" font-size="14.00">created timestamp without time zone DEFAULT now ( ) NOT NULL</text>
</g>
<!-- user_stats -->
<g id="node4" class="node"><title>user_stats</title>
<polygon fill="#b2dfee" stroke="black" points="156.5,-403 156.5,-495 251.5,-495 251.5,-403 156.5,-403"/>
<text text-anchor="middle" x="204" y="-479.8" font-family="Times,serif" font-size="14.00">user_stats</text>
<polyline fill="none" stroke="black" points="156.5,-472 251.5,-472 "/>
<text text-anchor="middle" x="204" y="-456.8" font-family="Times,serif" font-size="14.00">id integer</text>
<polyline fill="none" stroke="black" points="156.5,-449 251.5,-449 "/>
<text text-anchor="middle" x="204" y="-433.8" font-family="Times,serif" font-size="14.00">username text</text>
<polyline fill="none" stroke="black" points="156.5,-426 251.5,-426 "/>
<text text-anchor="middle" x="204" y="-410.8" font-family="Times,serif" font-size="14.00">count bigint</text>
</g>
<!-- users_followers -->
<g id="node5" class="node"><title>users_followers</title>
<polygon fill="#b2dfee" stroke="black" points="141,-514 141,-652 267,-652 267,-514 141,-514"/>
<text text-anchor="middle" x="204" y="-636.8" font-family="Times,serif" font-size="14.00">users_followers</text>
<polyline fill="none" stroke="black" points="141,-629 267,-629 "/>
<text text-anchor="middle" x="204" y="-613.8" font-family="Times,serif" font-size="14.00">follower_id integer</text>
<polyline fill="none" stroke="black" points="141,-606 267,-606 "/>
<text text-anchor="middle" x="204" y="-590.8" font-family="Times,serif" font-size="14.00">follower text</text>
<polyline fill="none" stroke="black" points="141,-583 267,-583 "/>
<text text-anchor="middle" x="204" y="-567.8" font-family="Times,serif" font-size="14.00">followee_id integer</text>
<polyline fill="none" stroke="black" points="141,-560 267,-560 "/>
<text text-anchor="middle" x="204" y="-544.8" font-family="Times,serif" font-size="14.00">followee text</text>
<polyline fill="none" stroke="black" points="141,-537 267,-537 "/>
<text text-anchor="middle" x="204" y="-521.8" font-family="Times,serif" font-size="14.00">count bigint</text>
</g>
</g>
</svg>
